<svg width="24" height="12" viewBox="0 0 24 12" fill="none" xmlns="http://www.w3.org/2000/svg">
<path d="M1.50996 0.078977C1.70694 0.0787129 1.90203 0.117458 2.08396 0.192977C2.26589 0.268495 2.43107 0.379293 2.56996 0.518976L10.243 8.19097C10.4751 8.42318 10.7507 8.60739 11.0541 8.73307C11.3575 8.85875 11.6826 8.92343 12.011 8.92343C12.3393 8.92343 12.6645 8.85875 12.9678 8.73307C13.2712 8.60739 13.5468 8.42318 13.779 8.19097L21.44 0.528976C21.5783 0.385711 21.7438 0.271438 21.9269 0.192825C22.1099 0.114211 22.3067 0.0728323 22.5059 0.0711016C22.705 0.0693708 22.9025 0.107323 23.0869 0.182744C23.2712 0.258165 23.4387 0.369545 23.5795 0.510384C23.7204 0.651223 23.8318 0.8187 23.9072 1.00304C23.9826 1.18739 24.0206 1.38491 24.0188 1.58408C24.0171 1.78325 23.9757 1.98008 23.8971 2.16308C23.8185 2.34609 23.7042 2.5116 23.561 2.64997L15.9 10.312C14.8679 11.3421 13.4692 11.9207 12.011 11.9207C10.5527 11.9207 9.15405 11.3421 8.12196 10.312L0.448958 2.63997C0.239042 2.43019 0.0960714 2.16286 0.0381373 1.8718C-0.0197968 1.58074 0.00990933 1.27903 0.123497 1.00486C0.237084 0.730686 0.429448 0.496368 0.676247 0.331555C0.923045 0.166743 1.21319 0.0788425 1.50996 0.078977Z" fill="#6CD0DA"/>
</svg>
