<svg width="250" height="29" viewBox="0 0 250 29" fill="none" xmlns="http://www.w3.org/2000/svg">
<path d="M2.59766 27.4219C2.26953 27.2109 2.01172 26.9414 1.82422 26.6133C1.61328 26.2852 1.44922 25.9336 1.33203 25.5586C1.19141 25.1836 1.08594 24.7969 1.01562 24.3984C0.921875 23.9766 0.828125 23.5781 0.734375 23.2031C0.734375 22.875 0.804688 22.6406 0.945312 22.5C1.08594 22.3359 1.23828 22.1836 1.40234 22.043C1.96484 22.0195 2.46875 21.9727 2.91406 21.9023C3.35938 21.832 3.79297 21.7617 4.21484 21.6914C4.63672 21.6211 5.05859 21.5625 5.48047 21.5156C5.90234 21.4453 6.35938 21.4102 6.85156 21.4102C7.20312 20.6836 7.53125 19.9922 7.83594 19.3359C8.14062 18.6562 8.43359 18.0117 8.71484 17.4023C8.85547 16.8164 9.03125 16.2773 9.24219 15.7852C9.47656 15.2695 9.69922 14.7891 9.91016 14.3438C10.1211 13.875 10.3086 13.418 10.4727 12.9727C10.6367 12.5039 10.7422 12.0117 10.7891 11.4961C11.0703 10.6758 11.3164 9.92578 11.5273 9.24609C11.7617 8.54297 11.9375 7.71094 12.0547 6.75C11.1641 6.89062 10.4492 7.03125 9.91016 7.17188C9.37109 7.28906 8.98438 7.40625 8.75 7.52344C8.28125 7.5 7.90625 7.40625 7.625 7.24219C7.36719 7.07812 7.15625 6.87891 6.99219 6.64453C6.82812 6.41016 6.6875 6.14062 6.57031 5.83594C6.45312 5.53125 6.3125 5.21484 6.14844 4.88672C6.24219 4.67578 6.26562 4.37109 6.21875 3.97266C6.17188 3.55078 6.03125 3.24609 5.79688 3.05859C5.98438 3.01172 6.125 2.85938 6.21875 2.60156C6.3125 2.32031 6.32422 2.10938 6.25391 1.96875C6.65234 1.85156 7.07422 1.78125 7.51953 1.75781C7.96484 1.71094 8.39844 1.67578 8.82031 1.65234C9.26562 1.60547 9.6875 1.55859 10.0859 1.51172C10.4844 1.44141 10.8242 1.3125 11.1055 1.125C12.3242 1.07812 13.5898 1.03125 14.9023 0.984375C16.2383 0.9375 17.4688 0.878906 18.5938 0.808594C19.0156 0.949219 19.4961 1.01953 20.0352 1.01953C20.5977 1.01953 21.1484 1.05469 21.6875 1.125C22.25 1.19531 22.7422 1.34766 23.1641 1.58203C23.6094 1.81641 23.9141 2.22656 24.0781 2.8125C24.4297 2.85938 24.6875 2.95312 24.8516 3.09375C25.0391 3.23438 25.1562 3.41016 25.2031 3.62109C25.25 3.80859 25.2617 4.03125 25.2383 4.28906C25.2383 4.52344 25.2383 4.75781 25.2383 4.99219C24.8633 5.27344 24.3828 5.50781 23.7969 5.69531C23.2344 5.85938 22.6133 6 21.9336 6.11719C21.2539 6.21094 20.5391 6.28125 19.7891 6.32812C19.0625 6.35156 18.3477 6.375 17.6445 6.39844C17.5273 7.17188 17.3164 8.08594 17.0117 9.14062C16.7305 10.1719 16.4375 11.1914 16.1328 12.1992C15.8281 13.1836 15.5586 14.0742 15.3242 14.8711C15.1133 15.6445 15.0195 16.1484 15.043 16.3828C14.8086 16.9219 14.6094 17.3789 14.4453 17.7539C14.3047 18.1289 14.1641 18.4805 14.0234 18.8086C13.9062 19.1367 13.7773 19.4648 13.6367 19.793C13.5195 20.0977 13.3672 20.4492 13.1797 20.8477H15.5703C15.6172 21.1055 15.7227 21.2812 15.8867 21.375C16.0508 21.4688 16.2266 21.5508 16.4141 21.6211C16.6016 21.6914 16.7656 21.7852 16.9062 21.9023C17.0703 21.9961 17.1523 22.1602 17.1523 22.3945C17.5977 22.5117 17.8789 22.6875 17.9961 22.9219C18.1133 23.1562 18.1367 23.4141 18.0664 23.6953C18.0195 23.9531 17.9023 24.2227 17.7148 24.5039C17.5508 24.7852 17.3867 25.0312 17.2227 25.2422C17.0117 25.1953 16.8125 25.2539 16.625 25.418C16.4375 25.5586 16.2617 25.7227 16.0977 25.9102C15.418 25.8164 14.75 25.8047 14.0938 25.875C13.4375 25.9453 12.8281 26.0039 12.2656 26.0508C12.1484 26.0742 12.1016 26.1445 12.125 26.2617C12.1484 26.3555 12.125 26.4258 12.0547 26.4727C11.3281 26.2383 10.5781 26.1445 9.80469 26.1914C9.05469 26.2383 8.28125 26.3555 7.48438 26.543C6.71094 26.707 5.91406 26.8828 5.09375 27.0703C4.27344 27.2812 3.44141 27.3984 2.59766 27.4219ZM27.7695 20.6016C27.5586 20.6484 27.4062 20.7773 27.3125 20.9883C27.2188 21.1758 27.125 21.375 27.0312 21.5859C26.9609 21.7969 26.8789 21.9961 26.7852 22.1836C26.7148 22.3477 26.5977 22.4297 26.4336 22.4297C26.4102 22.6172 26.3398 22.7812 26.2227 22.9219C26.1289 23.0625 26.0352 23.2148 25.9414 23.3789C25.8477 23.5195 25.7773 23.6836 25.7305 23.8711C25.6836 24.0352 25.707 24.2344 25.8008 24.4688C25.6133 24.6094 25.4961 24.8086 25.4492 25.0664C25.4023 25.3242 25.3438 25.5703 25.2734 25.8047C25.2266 26.0391 25.1328 26.2383 24.9922 26.4023C24.8516 26.5664 24.5938 26.6367 24.2188 26.6133C24.1484 26.707 24.1367 26.7656 24.1836 26.7891C24.2305 26.8125 24.2656 26.8945 24.2891 27.0352C24.0312 26.9883 23.832 27 23.6914 27.0703C23.5742 27.1641 23.4219 27.2227 23.2344 27.2461C22.7891 27.1055 22.4141 26.8594 22.1094 26.5078C21.8281 26.1562 21.5703 25.7695 21.3359 25.3477C21.125 24.9023 20.9258 24.457 20.7383 24.0117C20.5742 23.5664 20.4102 23.1797 20.2461 22.8516C20.3164 22.5938 20.3281 22.3477 20.2812 22.1133C20.2344 21.8555 20.1523 21.6445 20.0352 21.4805C21.1836 19.043 22.4375 16.4414 23.7969 13.6758C25.1562 10.9102 26.4453 8.17969 27.6641 5.48438C28.2031 5.69531 28.7305 5.94141 29.2461 6.22266C29.7852 6.48047 30.2656 6.78516 30.6875 7.13672C31.1328 7.48828 31.5078 7.89844 31.8125 8.36719C32.1172 8.8125 32.3164 9.31641 32.4102 9.87891C32.3633 10.0195 32.3047 10.0781 32.2344 10.0547C32.1875 10.0078 32.1406 10.0195 32.0938 10.0898C32.1875 10.207 32.2344 10.2891 32.2344 10.3359C32.2578 10.3828 32.2578 10.4297 32.2344 10.4766C32.2344 10.5234 32.2344 10.5938 32.2344 10.6875C32.2344 10.7578 32.2695 10.8633 32.3398 11.0039C32.2461 10.9805 32.1758 10.9922 32.1289 11.0391C32.1055 11.0859 32.0352 11.0859 31.918 11.0391C32.0117 11.2969 32.0352 11.5078 31.9883 11.6719C31.9648 11.8359 31.918 11.9883 31.8477 12.1289C31.7773 12.2461 31.7188 12.3867 31.6719 12.5508C31.625 12.6914 31.6367 12.8789 31.707 13.1133C31.6367 13.1133 31.5781 13.1367 31.5312 13.1836C31.5078 13.207 31.4844 13.2422 31.4609 13.2891C31.4375 13.3125 31.4023 13.3477 31.3555 13.3945C31.332 13.418 31.2852 13.418 31.2148 13.3945C31.2852 13.9102 31.3086 14.4258 31.2852 14.9414C31.2617 15.457 31.2383 15.9844 31.2148 16.5234C31.2148 17.0391 31.2266 17.5898 31.25 18.1758C31.2734 18.7383 31.3555 19.3242 31.4961 19.9336C32.3398 19.4414 33.0078 18.8086 33.5 18.0352C34.0156 17.2617 34.4258 16.3945 34.7305 15.4336C35.0586 14.4727 35.3047 13.4414 35.4688 12.3398C35.6328 11.2383 35.8086 10.1133 35.9961 8.96484C36.207 8.75391 36.3711 8.49609 36.4883 8.19141C36.6055 7.88672 36.7109 7.57031 36.8047 7.24219C36.8984 6.89062 36.9922 6.55078 37.0859 6.22266C37.1797 5.87109 37.2969 5.55469 37.4375 5.27344C37.7891 5.32031 38.082 5.4375 38.3164 5.625C38.5742 5.78906 38.8086 5.97656 39.0195 6.1875C39.2305 6.375 39.4531 6.5625 39.6875 6.75C39.9219 6.91406 40.2148 7.01953 40.5664 7.06641C40.8477 7.46484 41.1055 7.85156 41.3398 8.22656C41.5742 8.60156 41.7266 9 41.7969 9.42188C41.6797 9.60938 41.5859 9.82031 41.5156 10.0547C41.4688 10.2891 41.4102 10.5234 41.3398 10.7578C41.2695 10.9922 41.1758 11.2148 41.0586 11.4258C40.9414 11.6133 40.7773 11.7773 40.5664 11.918C40.4961 12.5273 40.4023 13.0898 40.2852 13.6055C40.1914 14.0977 40.0859 14.5898 39.9688 15.082C39.875 15.5742 39.793 16.0898 39.7227 16.6289C39.6523 17.1445 39.6289 17.7188 39.6523 18.3516C39.4648 18.8906 39.2656 19.4648 39.0547 20.0742C38.8438 20.6836 38.6797 21.2344 38.5625 21.7266C38.1875 22.0312 37.8945 22.3945 37.6836 22.8164C37.4727 23.2383 37.25 23.6602 37.0156 24.082C36.9219 24.1758 36.8633 24.1992 36.8398 24.1523C36.8164 24.1055 36.7344 24.0703 36.5938 24.0469C36.6172 24.1406 36.6172 24.2109 36.5938 24.2578C36.5703 24.3047 36.5352 24.3516 36.4883 24.3984C36.4648 24.4219 36.4414 24.4688 36.418 24.5391C36.418 24.6094 36.4414 24.7031 36.4883 24.8203C36.1602 24.9609 35.8672 25.1602 35.6094 25.418C35.3516 25.6758 35.0703 25.9102 34.7656 26.1211C34.4844 26.332 34.1328 26.4727 33.7109 26.543C33.3125 26.6133 32.7852 26.5312 32.1289 26.2969C31.168 25.5938 30.3125 24.7852 29.5625 23.8711C28.8359 22.957 28.2383 21.8672 27.7695 20.6016ZM52.5898 20.8125C52.5664 21.1406 52.4844 21.457 52.3438 21.7617C52.2266 22.043 52.0742 22.3242 51.8867 22.6055C51.6992 22.8633 51.4883 23.1211 51.2539 23.3789C51.043 23.6133 50.832 23.8242 50.6211 24.0117C50.6914 24.3164 50.6914 24.5508 50.6211 24.7148C50.5742 24.8555 50.5625 25.0781 50.5859 25.3828C50.2344 26.3203 49.6953 26.9414 48.9688 27.2461C48.2656 27.5742 47.5977 27.5156 46.9648 27.0703C46.707 26.8828 46.4844 26.6484 46.2969 26.3672C46.1328 26.0625 45.8984 25.875 45.5938 25.8047C45.6641 25.4062 45.6289 25.0078 45.4883 24.6094C45.3477 24.2109 45.1953 24 45.0312 23.9766C44.9609 23.4844 44.8555 22.957 44.7148 22.3945C44.5742 21.832 44.4453 21.2695 44.3281 20.707C44.2109 20.1211 44.1055 19.5586 44.0117 19.0195C43.9414 18.457 43.918 17.9414 43.9414 17.4727C43.9648 17.2383 43.918 17.0273 43.8008 16.8398C43.707 16.6523 43.6367 16.4297 43.5898 16.1719C43.4961 15.6328 43.4609 15.0703 43.4844 14.4844C43.5312 13.875 43.5547 13.3008 43.5547 12.7617C43.5547 12.2461 43.5195 11.6953 43.4492 11.1094C43.4023 10.5 43.3555 9.92578 43.3086 9.38672C43.2617 8.82422 43.2383 8.32031 43.2383 7.875C43.2383 7.40625 43.2969 7.04297 43.4141 6.78516C43.5547 6.50391 43.7422 6.28125 43.9766 6.11719C44.2344 5.92969 44.4688 5.73047 44.6797 5.51953C45.1953 5.56641 45.6055 5.77734 45.9102 6.15234C46.2148 6.52734 46.332 6.87891 46.2617 7.20703C46.7539 7.51172 47.1406 7.91016 47.4219 8.40234C47.7266 8.87109 47.9609 9.41016 48.125 10.0195C48.3125 10.6055 48.4414 11.2383 48.5117 11.918C48.582 12.5742 48.6406 13.2305 48.6875 13.8867C48.7344 14.5195 48.7812 15.1289 48.8281 15.7148C48.875 16.3008 48.9688 16.8047 49.1094 17.2266C49.9766 15.9844 50.7031 14.8828 51.2891 13.9219C51.875 12.9375 52.4727 12 53.082 11.1094C53.6914 10.2188 54.3711 9.31641 55.1211 8.40234C55.8711 7.48828 56.8438 6.45703 58.0391 5.30859C58.2734 5.33203 58.4609 5.37891 58.6016 5.44922C58.7656 5.51953 58.9062 5.57812 59.0234 5.625C59.1406 5.67188 59.2812 5.71875 59.4453 5.76562C59.6094 5.78906 59.832 5.77734 60.1133 5.73047C60.207 5.96484 60.2773 6.14062 60.3242 6.25781C60.3711 6.35156 60.4062 6.45703 60.4297 6.57422C60.4766 6.66797 60.5234 6.79688 60.5703 6.96094C60.6406 7.125 60.7461 7.35938 60.8867 7.66406C60.957 7.73438 60.9805 7.82812 60.957 7.94531C60.9336 8.0625 60.9102 8.17969 60.8867 8.29688C60.8867 8.39062 60.8867 8.46094 60.8867 8.50781C60.8867 8.55469 60.9453 8.55469 61.0625 8.50781C60.9922 8.83594 60.8633 9.14062 60.6758 9.42188C60.5117 9.67969 60.4414 9.99609 60.4648 10.3711C59.9258 11.0742 59.3281 11.8008 58.6719 12.5508C58.0391 13.3008 57.3945 14.0742 56.7383 14.8711C56.1055 15.668 55.4961 16.5117 54.9102 17.4023C54.3242 18.2695 53.8203 19.1836 53.3984 20.1445C53.2812 20.1445 53.1875 20.1797 53.1172 20.25C53.0703 20.3203 53.0234 20.4023 52.9766 20.4961C52.9297 20.5664 52.8711 20.6367 52.8008 20.707C52.7539 20.7773 52.6836 20.8125 52.5898 20.8125ZM77.9727 7.20703C77.9961 7.37109 77.9961 7.5 77.9727 7.59375C77.9727 7.66406 77.9609 7.73438 77.9375 7.80469C77.9375 7.875 77.9375 7.95703 77.9375 8.05078C77.9375 8.12109 77.9609 8.23828 78.0078 8.40234C77.5156 9.19922 76.9414 9.75 76.2852 10.0547C75.6523 10.3359 74.9609 10.5469 74.2109 10.6875C73.4609 10.8047 72.6875 10.9336 71.8906 11.0742C71.1172 11.2148 70.3438 11.5195 69.5703 11.9883C69.2656 11.8711 68.9844 11.8711 68.7266 11.9883C68.4922 12.1055 68.1406 12.1406 67.6719 12.0938C67.5312 12.2344 67.3555 12.3398 67.1445 12.4102C66.9336 12.457 66.7227 12.5156 66.5117 12.5859C66.6055 12.7969 66.6406 13.0195 66.6172 13.2539C66.6172 13.4648 66.6523 13.6406 66.7227 13.7812C67.543 13.8516 68.4453 13.8398 69.4297 13.7461C70.4375 13.6523 71.4219 13.5938 72.3828 13.5703C72.4062 13.6875 72.3945 13.7695 72.3477 13.8164C72.3008 13.8398 72.2891 13.8984 72.3125 13.9922C72.4766 14.1094 72.6406 14.2617 72.8047 14.4492C72.9688 14.6133 73.1328 14.7773 73.2969 14.9414C73.4609 15.1055 73.625 15.2461 73.7891 15.3633C73.9766 15.457 74.1875 15.4922 74.4219 15.4688C74.5156 15.6562 74.5742 15.8672 74.5977 16.1016C74.6445 16.3125 74.6211 16.5352 74.5273 16.7695C74.1523 17.0273 73.7773 17.2969 73.4023 17.5781C73.0273 17.8359 72.6289 18.0703 72.207 18.2812C71.8086 18.4922 71.375 18.668 70.9062 18.8086C70.4609 18.9258 69.957 18.9727 69.3945 18.9492C69.2773 18.9492 69.1836 18.9492 69.1133 18.9492C69.0664 18.9492 68.9961 18.9141 68.9023 18.8438C68.7148 18.9609 68.4453 18.9961 68.0938 18.9492C67.7656 18.9023 67.5078 18.9375 67.3203 19.0547C67.0625 18.9375 66.7461 18.8906 66.3711 18.9141C66.0195 18.9141 65.7031 18.8672 65.4219 18.7734C65.0469 19.2656 64.707 19.793 64.4023 20.3555C64.0977 20.918 63.8281 21.5156 63.5938 22.1484C64.3906 22.2656 65.0469 22.3125 65.5625 22.2891C66.1016 22.2656 66.6055 22.2305 67.0742 22.1836C67.543 22.1133 68.0234 22.0547 68.5156 22.0078C69.0078 21.9375 69.6289 21.9141 70.3789 21.9375C70.8477 21.6797 71.3984 21.5156 72.0312 21.4453C72.6875 21.3516 73.2852 21.2109 73.8242 21.0234C74.0117 21.0938 74.1758 21.2227 74.3164 21.4102C74.457 21.5742 74.5859 21.7383 74.7031 21.9023C74.8438 22.043 74.9844 22.1719 75.125 22.2891C75.2656 22.4062 75.4414 22.4531 75.6523 22.4297C75.7461 22.5234 75.8047 22.6406 75.8281 22.7812C75.875 22.8984 75.9102 23.0156 75.9336 23.1328C75.957 23.25 75.9922 23.3555 76.0391 23.4492C76.1094 23.5195 76.2148 23.543 76.3555 23.5195C76.0039 24.293 75.5938 24.8906 75.125 25.3125C74.6797 25.7109 74.1641 26.0156 73.5781 26.2266C72.9922 26.4375 72.3359 26.6016 71.6094 26.7188C70.9062 26.8359 70.1211 26.9766 69.2539 27.1406C69.043 27.1875 68.8672 27.1758 68.7266 27.1055C68.5859 27.0586 68.4219 27.0352 68.2344 27.0352C67.6953 27.1523 67.0508 27.2578 66.3008 27.3516C65.5508 27.4453 64.7891 27.4805 64.0156 27.457C63.2422 27.4336 62.5039 27.3281 61.8008 27.1406C61.0977 26.9766 60.5234 26.6719 60.0781 26.2266C59.8906 26.0625 59.7617 25.875 59.6914 25.6641C59.6445 25.4297 59.4922 25.2539 59.2344 25.1367C59.2109 24.832 59.1641 24.4922 59.0938 24.1172C59.0234 23.7422 58.9531 23.3555 58.8828 22.957C58.8125 22.5352 58.7539 22.125 58.707 21.7266C58.6836 21.3281 58.707 20.9648 58.7773 20.6367C58.8477 20.2852 58.9883 19.9688 59.1992 19.6875C59.4336 19.4062 59.5156 19.1016 59.4453 18.7734C59.5625 18.75 59.6328 18.6914 59.6562 18.5977C59.6797 18.4805 59.7734 18.4336 59.9375 18.457C60.0781 18.0352 60.2305 17.6367 60.3945 17.2617C60.5586 16.8867 60.7227 16.5234 60.8867 16.1719C61.0742 15.8203 61.25 15.4688 61.4141 15.1172C61.6016 14.7422 61.7773 14.332 61.9414 13.8867C61.6133 13.582 61.3672 13.2539 61.2031 12.9023C61.0625 12.5273 60.957 12.1641 60.8867 11.8125C60.8164 11.4375 60.7578 11.0625 60.7109 10.6875C60.6641 10.2891 60.582 9.89062 60.4648 9.49219C60.6992 9.14062 60.9805 8.85938 61.3086 8.64844C61.6602 8.41406 62.0352 8.22656 62.4336 8.08594C62.832 7.94531 63.2656 7.82812 63.7344 7.73438C64.2031 7.64062 64.6953 7.53516 65.2109 7.41797C66.1484 7.11328 66.9805 6.87891 67.707 6.71484C68.457 6.55078 69.1836 6.42188 69.8867 6.32812C70.6133 6.21094 71.3633 6.10547 72.1367 6.01172C72.9102 5.91797 73.7891 5.77734 74.7734 5.58984C74.9844 5.80078 75.1836 5.90625 75.3711 5.90625C75.4648 5.69531 75.5703 5.63672 75.6875 5.73047C75.8281 5.80078 75.8867 5.73047 75.8633 5.51953C76.0977 5.91797 76.3906 6.25781 76.7422 6.53906C77.1172 6.79688 77.5273 7.01953 77.9727 7.20703ZM77.6914 11.1797C77.8555 10.6875 78.1133 10.2656 78.4648 9.91406C78.8398 9.5625 79.2383 9.26953 79.6602 9.03516C80.1055 8.77734 80.5625 8.56641 81.0312 8.40234C81.5 8.23828 81.9453 8.09766 82.3672 7.98047C83.3047 7.58203 84.3008 7.20703 85.3555 6.85547C86.4336 6.48047 87.5234 6.15234 88.625 5.87109C89.75 5.58984 90.8984 5.41406 92.0703 5.34375C93.2422 5.25 94.4727 5.39062 95.7617 5.76562C95.832 6 95.9375 6.22266 96.0781 6.43359C96.2188 6.64453 96.3594 6.85547 96.5 7.06641C96.6641 7.27734 96.8047 7.48828 96.9219 7.69922C97.0391 7.88672 97.1094 8.08594 97.1328 8.29688C97.3672 8.50781 97.5547 8.74219 97.6953 9C97.8359 9.23438 97.8594 9.55078 97.7656 9.94922C97.5312 10.1367 97.2969 10.3125 97.0625 10.4766C96.8516 10.6172 96.6172 10.7461 96.3594 10.8633C95.4922 10.6523 94.6133 10.582 93.7227 10.6523C92.832 10.7227 92.0352 10.7812 91.332 10.8281C91.1211 10.6172 90.8633 10.5117 90.5586 10.5117C90.2773 10.5117 89.9727 10.5586 89.6445 10.6523C89.3398 10.7461 89.0234 10.8398 88.6953 10.9336C88.3906 11.0273 88.0977 11.0508 87.8164 11.0039C87.582 11.1914 87.2891 11.3203 86.9375 11.3906C86.6094 11.4375 86.2461 11.4844 85.8477 11.5312C85.8242 11.6484 85.8477 11.7305 85.918 11.7773C85.9883 11.8008 86 11.8711 85.9531 11.9883C86.0938 12.1523 86.2695 12.2695 86.4805 12.3398C86.7148 12.4102 86.9492 12.4805 87.1836 12.5508C87.4414 12.6211 87.6641 12.7148 87.8516 12.832C88.0391 12.9258 88.168 13.0898 88.2383 13.3242C88.5898 13.3242 88.8945 13.4062 89.1523 13.5703C89.4102 13.7344 89.6211 13.9336 89.7852 14.168C89.9492 14.4023 90.0664 14.6602 90.1367 14.9414C90.2305 15.1992 90.2773 15.4336 90.2773 15.6445C90.3477 15.832 90.4297 15.9141 90.5234 15.8906C90.6172 15.8672 90.7227 15.9141 90.8398 16.0312C90.9102 16.3359 91.0859 16.6523 91.3672 16.9805C91.6484 17.2852 91.8711 17.625 92.0352 18C92.082 18.5859 92.1172 19.1133 92.1406 19.582C92.1641 20.0273 92.082 20.4844 91.8945 20.9531C91.543 21.8203 91.0508 22.5938 90.418 23.2734C89.8086 23.9531 89.1055 24.5625 88.3086 25.1016C87.5352 25.6172 86.7031 26.0625 85.8125 26.4375C84.9219 26.8125 84.0547 27.1289 83.2109 27.3867C83.1172 27.3633 83.0234 27.3633 82.9297 27.3867C82.8359 27.4102 82.8125 27.3516 82.8594 27.2109C82.6719 27.375 82.4609 27.4805 82.2266 27.5273C82.0156 27.5742 81.7812 27.5859 81.5234 27.5625C81.2656 27.5625 80.9961 27.5508 80.7148 27.5273C80.457 27.5039 80.2109 27.5156 79.9766 27.5625C79.8125 27.3984 79.6602 27.2344 79.5195 27.0703C79.4023 26.9297 79.3086 26.7422 79.2383 26.5078C79.1211 26.5078 79.0625 26.4492 79.0625 26.332C79.0859 26.2148 79.0508 26.1562 78.957 26.1562C79.0977 25.9219 79.1562 25.793 79.1328 25.7695C79.1328 25.7227 79.0977 25.6875 79.0273 25.6641C78.9805 25.6406 78.9336 25.6172 78.8867 25.5938C78.8398 25.5469 78.8281 25.4883 78.8516 25.418C78.9453 25.2305 78.9805 25.0195 78.957 24.7852C78.9336 24.5273 78.9102 24.2695 78.8867 24.0117C78.8633 23.7539 78.875 23.5078 78.9219 23.2734C78.9922 23.0391 79.168 22.8516 79.4492 22.7109C80.2461 22.8047 80.9961 22.7812 81.6992 22.6406C82.4258 22.4766 83.1055 22.2539 83.7383 21.9727C84.3711 21.6914 84.9688 21.3867 85.5312 21.0586C86.1172 20.7305 86.6914 20.4375 87.2539 20.1797C87.3242 19.9688 87.418 19.793 87.5352 19.6523C87.6758 19.5117 87.8164 19.3828 87.957 19.2656C88.0977 19.1484 88.2266 19.0195 88.3438 18.8789C88.4609 18.7383 88.543 18.5625 88.5898 18.3516C88.6133 18.1875 88.5664 18.0938 88.4492 18.0703C88.3555 18.0234 88.3086 17.9297 88.3086 17.7891L87.9219 17.6836C87.4766 17.4258 86.9727 17.2148 86.4102 17.0508C85.8477 16.8633 85.3672 16.6641 84.9688 16.4531C84.7109 16.5938 84.4648 16.6289 84.2305 16.5586C84.0195 16.4883 83.7383 16.418 83.3867 16.3477C82.5898 16.3008 81.8164 16.2188 81.0664 16.1016C80.3398 15.9844 79.6367 15.7734 78.957 15.4688C78.9102 15.3516 78.8516 15.2461 78.7812 15.1523C78.7109 15.0586 78.582 15.0352 78.3945 15.082C78.2539 14.8945 78.1133 14.7188 77.9727 14.5547C77.832 14.3672 77.7031 14.168 77.5859 13.957C77.6328 13.6758 77.668 13.4414 77.6914 13.2539C77.7148 13.043 77.6445 12.8438 77.4805 12.6562C77.5742 12.3516 77.6445 12.1055 77.6914 11.918C77.7383 11.7305 77.7383 11.4844 77.6914 11.1797ZM113.832 10.0898C113.246 10.0898 112.613 10.1367 111.934 10.2305C111.254 10.3008 110.586 10.3828 109.93 10.4766C109.461 10.5469 109.004 10.6055 108.559 10.6523C108.137 10.6992 107.75 10.7344 107.398 10.7578C107.234 11.2734 107.07 11.7305 106.906 12.1289C106.742 12.5273 106.566 12.9141 106.379 13.2891C106.191 13.6875 106.016 14.0977 105.852 14.5195C105.711 14.918 105.57 15.3516 105.43 15.8203C105.195 16.1953 104.996 16.5469 104.832 16.875C104.691 17.1797 104.574 17.5312 104.48 17.9297C104.199 18.2812 103.988 18.6562 103.848 19.0547C103.707 19.4297 103.602 19.7578 103.531 20.0391L103.391 20.4609C103.25 20.6016 103.168 20.7188 103.145 20.8125C103.121 20.8828 103.062 20.9531 102.969 21.0234C102.945 21.2812 102.863 21.5391 102.723 21.7969C102.676 21.9141 102.641 22.0312 102.617 22.1484C102.594 22.2422 102.582 22.3125 102.582 22.3594C102.582 22.5938 102.523 22.7461 102.406 22.8164C102.43 22.9336 102.43 23.0625 102.406 23.2031C102.383 23.3203 102.359 23.4375 102.336 23.5547C102.266 23.8359 102.242 24.0586 102.266 24.2227C102.336 24.3164 102.395 24.3984 102.441 24.4688C102.512 24.5391 102.559 24.6328 102.582 24.75C102.723 24.8438 102.828 24.9023 102.898 24.9258C102.992 24.9961 103.133 25.0781 103.32 25.1719L103.637 25.5234C103.754 26.2031 103.648 26.7422 103.32 27.1406C102.969 27.5859 102.371 27.8086 101.527 27.8086H101.105C100.988 27.6914 100.918 27.5977 100.895 27.5273C100.707 27.457 100.555 27.3984 100.438 27.3516C100.32 27.3047 100.215 27.2109 100.121 27.0703C99.8164 26.9297 99.5703 26.8125 99.3828 26.7188L99.0664 26.543C99.0664 26.2852 99.0664 26.1445 99.0664 26.1211C98.9023 25.9102 98.7734 25.6758 98.6797 25.418C98.6094 25.1602 98.5508 24.9023 98.5039 24.6445C98.457 24.4336 98.3984 24.2344 98.3281 24.0469C98.2812 23.8594 98.2109 23.6953 98.1172 23.5547C98.0703 22.1953 98.1992 21.0469 98.5039 20.1094C98.8086 19.1719 99.125 18.2695 99.4531 17.4023C99.6406 16.9336 99.8281 16.4648 100.016 15.9961C100.203 15.5039 100.367 15 100.508 14.4844L100.824 14.1328C100.988 13.7578 101.117 13.4531 101.211 13.2188C101.328 12.9609 101.445 12.7031 101.562 12.4453C101.633 12.2812 101.691 12.1289 101.738 11.9883C101.809 11.8242 101.867 11.6836 101.914 11.5664C101.773 11.5664 101.645 11.5781 101.527 11.6016C101.41 11.6016 101.293 11.6133 101.176 11.6367C101.035 11.6602 100.906 11.6836 100.789 11.707C100.672 11.707 100.555 11.707 100.438 11.707C100.273 11.707 100.156 11.6953 100.086 11.6719C99.8281 11.7891 99.5469 11.8477 99.2422 11.8477H98.8906C98.8203 11.8477 98.75 11.8477 98.6797 11.8477C98.6328 11.8242 98.5859 11.8125 98.5391 11.8125C98.3047 11.8125 98.1172 11.8477 97.9766 11.918C97.6953 11.918 97.4258 11.918 97.168 11.918H96.8164C96.7695 11.918 96.7109 11.9297 96.6406 11.9531C96.5703 11.9531 96.5117 11.9531 96.4648 11.9531C96.3008 11.9531 96.125 11.9414 95.9375 11.918C95.75 11.8711 95.5508 11.7891 95.3398 11.6719C95.0586 11.2969 94.8711 11.0977 94.7773 11.0742L94.4609 10.6523C94.4375 10.5117 94.4023 10.3828 94.3555 10.2656C94.3086 10.125 94.2617 9.97266 94.2148 9.80859C94.1211 9.57422 94.0273 9.32812 93.9336 9.07031C93.8633 8.78906 93.8281 8.46094 93.8281 8.08594C93.8516 7.89844 93.8984 7.75781 93.9688 7.66406C94.0391 7.57031 94.0977 7.48828 94.1445 7.41797L94.25 6.89062L94.707 6.92578H95.6914C96.4414 6.92578 97.2031 6.90234 97.9766 6.85547C98.75 6.78516 99.5469 6.71484 100.367 6.64453C100.836 6.59766 101.305 6.55078 101.773 6.50391C102.266 6.45703 102.77 6.41016 103.285 6.36328C103.379 6.15234 103.473 5.95312 103.566 5.76562L103.918 5.58984C104.34 5.56641 104.633 5.625 104.797 5.76562C104.984 5.88281 105.137 6 105.254 6.11719C105.77 6.07031 106.285 6.02344 106.801 5.97656C107.34 5.90625 107.879 5.82422 108.418 5.73047C109.215 5.61328 110.012 5.50781 110.809 5.41406C111.629 5.32031 112.414 5.27344 113.164 5.27344C113.492 5.27344 113.809 5.28516 114.113 5.30859C114.418 5.33203 114.699 5.36719 114.957 5.41406L115.309 5.66016C115.379 5.80078 115.473 5.92969 115.59 6.04688C115.73 6.16406 115.871 6.28125 116.012 6.39844C116.293 6.65625 116.574 6.96094 116.855 7.3125C117.137 7.66406 117.242 8.17969 117.172 8.85938C116.984 9.14062 116.844 9.30469 116.75 9.35156L116.434 9.77344L116.082 9.73828C115.941 9.73828 115.812 9.76172 115.695 9.80859C115.578 9.83203 115.461 9.86719 115.344 9.91406C115.25 9.96094 115.156 10.0078 115.062 10.0547C114.969 10.0781 114.863 10.1016 114.746 10.125C114.535 10.125 114.359 10.125 114.219 10.125C114.102 10.1016 113.973 10.0898 113.832 10.0898ZM124.941 25.8047C124.871 25.8281 124.824 25.8047 124.801 25.7344C124.777 25.6641 124.766 25.5938 124.766 25.5234C124.789 25.4531 124.824 25.3945 124.871 25.3477C124.941 25.3008 125.023 25.3008 125.117 25.3477C124.812 24.9727 124.613 24.6328 124.52 24.3281C124.449 24.0234 124.297 23.6484 124.062 23.2031C124.133 23.1328 124.18 23.0391 124.203 22.9219C124.227 22.7812 124.262 22.6523 124.309 22.5352C124.332 22.418 124.367 22.3359 124.414 22.2891C124.484 22.2188 124.566 22.2305 124.66 22.3242C124.613 22.0664 124.613 21.8555 124.66 21.6914C124.707 21.5273 124.754 21.375 124.801 21.2344C124.871 21.0938 124.918 20.9531 124.941 20.8125C124.965 20.6719 124.93 20.5078 124.836 20.3203C125.281 19.7109 125.574 19.0547 125.715 18.3516C125.855 17.625 125.938 16.9688 125.961 16.3828C126.172 16.1719 126.348 15.8906 126.488 15.5391C126.652 15.1875 126.77 14.8242 126.84 14.4492C126.91 14.0742 126.945 13.7109 126.945 13.3594C126.945 12.9844 126.898 12.6914 126.805 12.4805C126.828 12.3867 126.875 12.3398 126.945 12.3398C127.039 12.3164 127.145 12.3164 127.262 12.3398C127.426 11.4023 127.531 10.3594 127.578 9.21094C127.648 8.0625 127.766 6.96094 127.93 5.90625C128.117 4.82812 128.41 3.89062 128.809 3.09375C129.207 2.27344 129.84 1.74609 130.707 1.51172C130.871 2.09766 131.082 2.61328 131.34 3.05859C131.621 3.50391 131.914 3.9375 132.219 4.35938C132.547 4.78125 132.875 5.20312 133.203 5.625C133.531 6.04688 133.836 6.51562 134.117 7.03125C134.094 7.57031 134.035 8.19141 133.941 8.89453C133.871 9.59766 133.766 10.3125 133.625 11.0391C133.508 11.7656 133.379 12.4688 133.238 13.1484C133.121 13.8281 133.004 14.4023 132.887 14.8711C132.91 14.9883 132.992 15.0703 133.133 15.1172C133.273 15.1406 133.297 15.2695 133.203 15.5039C133.883 15.3398 134.586 15.1875 135.312 15.0469C136.062 14.8828 136.789 14.7305 137.492 14.5898C138.219 14.4258 138.922 14.2383 139.602 14.0273C140.305 13.8164 140.961 13.5586 141.57 13.2539C141.711 12.1289 141.887 11.0156 142.098 9.91406C142.309 8.8125 142.332 7.69922 142.168 6.57422C142.309 6.45703 142.426 6.31641 142.52 6.15234C142.613 5.98828 142.754 5.88281 142.941 5.83594C142.801 5.29688 142.742 4.73438 142.766 4.14844C142.789 3.53906 142.883 2.97656 143.047 2.46094C143.234 1.94531 143.504 1.5 143.855 1.125C144.207 0.726562 144.641 0.46875 145.156 0.351562C145.461 0.796875 145.73 1.27734 145.965 1.79297C146.199 2.30859 146.434 2.83594 146.668 3.375C146.902 3.89062 147.148 4.38281 147.406 4.85156C147.688 5.32031 148.039 5.71875 148.461 6.04688C148.531 6.86719 148.59 7.71094 148.637 8.57812C148.684 9.42188 148.719 10.3008 148.742 11.2148C148.531 12.2695 148.285 13.3008 148.004 14.3086C147.746 15.293 147.559 16.3477 147.441 17.4727C147.254 17.6836 147.102 17.9414 146.984 18.2461C146.867 18.5273 146.75 18.8203 146.633 19.125C146.539 19.4062 146.422 19.6875 146.281 19.9688C146.141 20.25 145.965 20.4844 145.754 20.6719C145.848 21 145.859 21.3164 145.789 21.6211C145.742 21.9023 145.824 22.2422 146.035 22.6406C146.082 23.3672 145.988 23.9766 145.754 24.4688C145.543 24.9375 145.238 25.3477 144.84 25.6992C144.465 26.0273 144.02 26.2969 143.504 26.5078C143.012 26.6953 142.52 26.8711 142.027 27.0352C141.793 26.8945 141.57 26.7539 141.359 26.6133C141.172 26.4492 140.938 26.332 140.656 26.2617L140.832 25.9453C140.363 25.4766 139.953 24.9844 139.602 24.4688C139.273 23.9297 139.121 23.3203 139.145 22.6406C139.145 22.6172 139.168 22.4648 139.215 22.1836C139.262 21.8789 139.309 21.5625 139.355 21.2344C139.426 20.9062 139.484 20.6016 139.531 20.3203C139.602 20.0156 139.637 19.8516 139.637 19.8281C138.98 19.8984 138.301 20.0508 137.598 20.2852C136.895 20.5195 136.203 20.7891 135.523 21.0938C134.867 21.375 134.246 21.6797 133.66 22.0078C133.098 22.3125 132.641 22.5703 132.289 22.7812C132.289 22.8516 132.23 23.0508 132.113 23.3789C131.996 23.707 131.855 24.0586 131.691 24.4336C131.527 24.7852 131.34 25.1016 131.129 25.3828C130.941 25.6641 130.742 25.793 130.531 25.7695C130.578 25.8867 130.625 25.9805 130.672 26.0508C130.719 26.0977 130.719 26.2031 130.672 26.3672C130.273 26.4844 129.91 26.6367 129.582 26.8242C129.277 27.0117 128.961 27.1641 128.633 27.2812C128.305 27.4219 127.941 27.4805 127.543 27.457C127.168 27.457 126.711 27.3164 126.172 27.0352C126.172 26.8711 126.102 26.7305 125.961 26.6133C125.82 26.4727 125.668 26.3555 125.504 26.2617C125.363 26.168 125.234 26.0859 125.117 26.0156C125 25.9453 124.941 25.875 124.941 25.8047ZM169.062 7.20703C169.086 7.37109 169.086 7.5 169.062 7.59375C169.062 7.66406 169.051 7.73438 169.027 7.80469C169.027 7.875 169.027 7.95703 169.027 8.05078C169.027 8.12109 169.051 8.23828 169.098 8.40234C168.605 9.19922 168.031 9.75 167.375 10.0547C166.742 10.3359 166.051 10.5469 165.301 10.6875C164.551 10.8047 163.777 10.9336 162.98 11.0742C162.207 11.2148 161.434 11.5195 160.66 11.9883C160.355 11.8711 160.074 11.8711 159.816 11.9883C159.582 12.1055 159.23 12.1406 158.762 12.0938C158.621 12.2344 158.445 12.3398 158.234 12.4102C158.023 12.457 157.812 12.5156 157.602 12.5859C157.695 12.7969 157.73 13.0195 157.707 13.2539C157.707 13.4648 157.742 13.6406 157.812 13.7812C158.633 13.8516 159.535 13.8398 160.52 13.7461C161.527 13.6523 162.512 13.5938 163.473 13.5703C163.496 13.6875 163.484 13.7695 163.438 13.8164C163.391 13.8398 163.379 13.8984 163.402 13.9922C163.566 14.1094 163.73 14.2617 163.895 14.4492C164.059 14.6133 164.223 14.7773 164.387 14.9414C164.551 15.1055 164.715 15.2461 164.879 15.3633C165.066 15.457 165.277 15.4922 165.512 15.4688C165.605 15.6562 165.664 15.8672 165.688 16.1016C165.734 16.3125 165.711 16.5352 165.617 16.7695C165.242 17.0273 164.867 17.2969 164.492 17.5781C164.117 17.8359 163.719 18.0703 163.297 18.2812C162.898 18.4922 162.465 18.668 161.996 18.8086C161.551 18.9258 161.047 18.9727 160.484 18.9492C160.367 18.9492 160.273 18.9492 160.203 18.9492C160.156 18.9492 160.086 18.9141 159.992 18.8438C159.805 18.9609 159.535 18.9961 159.184 18.9492C158.855 18.9023 158.598 18.9375 158.41 19.0547C158.152 18.9375 157.836 18.8906 157.461 18.9141C157.109 18.9141 156.793 18.8672 156.512 18.7734C156.137 19.2656 155.797 19.793 155.492 20.3555C155.188 20.918 154.918 21.5156 154.684 22.1484C155.48 22.2656 156.137 22.3125 156.652 22.2891C157.191 22.2656 157.695 22.2305 158.164 22.1836C158.633 22.1133 159.113 22.0547 159.605 22.0078C160.098 21.9375 160.719 21.9141 161.469 21.9375C161.938 21.6797 162.488 21.5156 163.121 21.4453C163.777 21.3516 164.375 21.2109 164.914 21.0234C165.102 21.0938 165.266 21.2227 165.406 21.4102C165.547 21.5742 165.676 21.7383 165.793 21.9023C165.934 22.043 166.074 22.1719 166.215 22.2891C166.355 22.4062 166.531 22.4531 166.742 22.4297C166.836 22.5234 166.895 22.6406 166.918 22.7812C166.965 22.8984 167 23.0156 167.023 23.1328C167.047 23.25 167.082 23.3555 167.129 23.4492C167.199 23.5195 167.305 23.543 167.445 23.5195C167.094 24.293 166.684 24.8906 166.215 25.3125C165.77 25.7109 165.254 26.0156 164.668 26.2266C164.082 26.4375 163.426 26.6016 162.699 26.7188C161.996 26.8359 161.211 26.9766 160.344 27.1406C160.133 27.1875 159.957 27.1758 159.816 27.1055C159.676 27.0586 159.512 27.0352 159.324 27.0352C158.785 27.1523 158.141 27.2578 157.391 27.3516C156.641 27.4453 155.879 27.4805 155.105 27.457C154.332 27.4336 153.594 27.3281 152.891 27.1406C152.188 26.9766 151.613 26.6719 151.168 26.2266C150.98 26.0625 150.852 25.875 150.781 25.6641C150.734 25.4297 150.582 25.2539 150.324 25.1367C150.301 24.832 150.254 24.4922 150.184 24.1172C150.113 23.7422 150.043 23.3555 149.973 22.957C149.902 22.5352 149.844 22.125 149.797 21.7266C149.773 21.3281 149.797 20.9648 149.867 20.6367C149.938 20.2852 150.078 19.9688 150.289 19.6875C150.523 19.4062 150.605 19.1016 150.535 18.7734C150.652 18.75 150.723 18.6914 150.746 18.5977C150.77 18.4805 150.863 18.4336 151.027 18.457C151.168 18.0352 151.32 17.6367 151.484 17.2617C151.648 16.8867 151.812 16.5234 151.977 16.1719C152.164 15.8203 152.34 15.4688 152.504 15.1172C152.691 14.7422 152.867 14.332 153.031 13.8867C152.703 13.582 152.457 13.2539 152.293 12.9023C152.152 12.5273 152.047 12.1641 151.977 11.8125C151.906 11.4375 151.848 11.0625 151.801 10.6875C151.754 10.2891 151.672 9.89062 151.555 9.49219C151.789 9.14062 152.07 8.85938 152.398 8.64844C152.75 8.41406 153.125 8.22656 153.523 8.08594C153.922 7.94531 154.355 7.82812 154.824 7.73438C155.293 7.64062 155.785 7.53516 156.301 7.41797C157.238 7.11328 158.07 6.87891 158.797 6.71484C159.547 6.55078 160.273 6.42188 160.977 6.32812C161.703 6.21094 162.453 6.10547 163.227 6.01172C164 5.91797 164.879 5.77734 165.863 5.58984C166.074 5.80078 166.273 5.90625 166.461 5.90625C166.555 5.69531 166.66 5.63672 166.777 5.73047C166.918 5.80078 166.977 5.73047 166.953 5.51953C167.188 5.91797 167.48 6.25781 167.832 6.53906C168.207 6.79688 168.617 7.01953 169.062 7.20703ZM173.527 23.3438C173.27 24.2812 173.035 24.9961 172.824 25.4883C172.637 25.957 172.344 26.4492 171.945 26.9648C171.641 26.918 171.43 26.9531 171.312 27.0703C171.195 27.1875 171.066 27.293 170.926 27.3867C170.715 27.4336 170.562 27.4336 170.469 27.3867C170.375 27.3398 170.293 27.2812 170.223 27.2109C170.152 27.1641 170.059 27.1055 169.941 27.0352C169.848 26.9883 169.695 26.9648 169.484 26.9648C169.438 26.7773 169.379 26.6016 169.309 26.4375C169.262 26.2734 169.109 26.2148 168.852 26.2617C168.898 26.0742 168.91 25.9219 168.887 25.8047C168.863 25.6641 168.828 25.5469 168.781 25.4531C168.758 25.3359 168.734 25.2305 168.711 25.1367C168.688 25.0195 168.699 24.8789 168.746 24.7148C168.629 24.7148 168.535 24.6328 168.465 24.4688C168.395 24.3047 168.312 24.1406 168.219 23.9766C168.289 23.5547 168.359 23.1562 168.43 22.7812C168.5 22.4062 168.582 22.0547 168.676 21.7266C168.793 21.3984 168.887 21.0703 168.957 20.7422C169.027 20.4141 168.992 20.0742 168.852 19.7227C168.945 19.793 169.016 19.7812 169.062 19.6875C169.109 19.5703 169.145 19.4297 169.168 19.2656C169.191 19.0781 169.203 18.9023 169.203 18.7383C169.203 18.5508 169.191 18.3984 169.168 18.2812C169.402 17.6719 169.59 17.0508 169.73 16.418C169.895 15.7617 170.035 15.1172 170.152 14.4844C170.293 13.8516 170.434 13.2305 170.574 12.6211C170.715 12.0117 170.902 11.4492 171.137 10.9336C171.395 10.8867 171.676 10.9219 171.98 11.0391C172.309 11.1328 172.508 11.2617 172.578 11.4258C173.188 10.957 173.727 10.3945 174.195 9.73828C174.664 9.05859 175.145 8.40234 175.637 7.76953C176.129 7.13672 176.668 6.57422 177.254 6.08203C177.863 5.58984 178.625 5.29688 179.539 5.20312C180.008 5.55469 180.523 5.91797 181.086 6.29297C181.672 6.64453 182.152 7.11328 182.527 7.69922C182.715 7.79297 182.867 7.89844 182.984 8.01562C183.125 8.10938 183.289 8.21484 183.477 8.33203V8.75391C183.758 9.01172 183.98 9.31641 184.145 9.66797C184.332 9.99609 184.496 10.3594 184.637 10.7578C184.777 11.1328 184.918 11.5195 185.059 11.918C185.199 12.293 185.363 12.6562 185.551 13.0078C185.504 13.125 185.48 13.2305 185.48 13.3242C185.48 13.3945 185.492 13.4766 185.516 13.5703C185.562 13.6641 185.598 13.7578 185.621 13.8516C185.645 13.9453 185.645 14.0742 185.621 14.2383C185.551 15.2695 185.211 16.1016 184.602 16.7344C184.016 17.3672 183.301 17.8945 182.457 18.3164C181.613 18.7148 180.711 19.0547 179.75 19.3359C178.789 19.6172 177.922 19.9219 177.148 20.25C177.148 20.3438 177.184 20.3906 177.254 20.3906C177.348 20.3906 177.383 20.4492 177.359 20.5664C177.922 20.918 178.367 21.1992 178.695 21.4102C179.023 21.6211 179.328 21.7969 179.609 21.9375C179.914 22.0781 180.23 22.207 180.559 22.3242C180.91 22.418 181.391 22.5352 182 22.6758C182.609 22.8164 183.078 22.9336 183.406 23.0273C183.758 23.0977 184.074 23.168 184.355 23.2383C184.637 23.2852 184.918 23.332 185.199 23.3789C185.504 23.4023 185.926 23.4375 186.465 23.4844C186.676 23.6953 186.852 23.9531 186.992 24.2578C187.156 24.5391 187.262 24.832 187.309 25.1367C187.355 25.418 187.367 25.6992 187.344 25.9805C187.32 26.2383 187.238 26.4492 187.098 26.6133C187.121 26.6836 187.168 26.7188 187.238 26.7188C187.332 26.6953 187.426 26.6953 187.52 26.7188C187.379 26.8125 187.262 26.9297 187.168 27.0703C187.074 27.2109 186.98 27.3516 186.887 27.4922C186.793 27.6328 186.688 27.75 186.57 27.8438C186.453 27.9609 186.289 28.0312 186.078 28.0547C185.352 28.3359 184.438 28.3477 183.336 28.0898C182.234 27.8555 180.84 27.4102 179.152 26.7539C178.309 26.4258 177.617 26.1445 177.078 25.9102C176.562 25.6523 176.105 25.4062 175.707 25.1719C175.332 24.9141 174.98 24.6445 174.652 24.3633C174.348 24.082 173.973 23.7422 173.527 23.3438ZM178.555 11.2852C178.297 11.6602 178.004 12 177.676 12.3047C177.371 12.6094 177.066 12.9258 176.762 13.2539C176.48 13.5586 176.223 13.9102 175.988 14.3086C175.754 14.6836 175.59 15.1289 175.496 15.6445C176.316 15.5508 177.172 15.3281 178.062 14.9766C178.953 14.6016 179.797 14.25 180.594 13.9219C180.5 13.1953 180.242 12.6094 179.82 12.1641C179.422 11.7188 179 11.4258 178.555 11.2852ZM207.84 16.4531C207.816 16.7344 207.84 17.0039 207.91 17.2617C207.98 17.5195 208.062 17.7773 208.156 18.0352C208.273 18.2695 208.379 18.5156 208.473 18.7734C208.566 19.0312 208.637 19.2891 208.684 19.5469C208.73 19.875 208.73 20.2383 208.684 20.6367C208.637 21.0117 208.555 21.3867 208.438 21.7617C208.32 22.1133 208.168 22.4414 207.98 22.7461C207.793 23.0273 207.57 23.2383 207.312 23.3789C206.984 23.8008 206.586 24.1289 206.117 24.3633C205.648 24.5977 205.215 24.8789 204.816 25.207C204.559 25.3711 204.266 25.4883 203.938 25.5586C203.633 25.6289 203.316 25.6992 202.988 25.7695C202.73 25.9102 202.426 26.0625 202.074 26.2266C201.723 26.3672 201.359 26.5078 200.984 26.6484C200.609 26.7656 200.234 26.8594 199.859 26.9297C199.484 26.9766 199.156 26.9883 198.875 26.9648C198.172 27.2227 197.48 27.3867 196.801 27.457C196.145 27.5508 195.371 27.5039 194.48 27.3164C193.637 27.4336 192.852 27.3984 192.125 27.2109C191.422 27.0234 190.789 26.7305 190.227 26.332C189.688 25.9102 189.207 25.418 188.785 24.8555C188.387 24.2695 188.059 23.6602 187.801 23.0273C187.613 21.6914 187.66 20.4844 187.941 19.4062C188.223 18.3047 188.621 17.2969 189.137 16.3828C189.676 15.4453 190.285 14.5898 190.965 13.8164C191.645 13.0195 192.301 12.2461 192.934 11.4961C193.074 11.543 193.18 11.543 193.25 11.4961C193.344 11.4258 193.426 11.3438 193.496 11.25C193.566 11.1328 193.637 11.0273 193.707 10.9336C193.801 10.8398 193.906 10.7812 194.023 10.7578C194.188 10.4062 194.422 10.1484 194.727 9.98438C195.055 9.79688 195.312 9.53906 195.5 9.21094C195.711 9.16406 195.887 9.09375 196.027 9C196.168 8.90625 196.297 8.80078 196.414 8.68359C196.555 8.56641 196.695 8.46094 196.836 8.36719C196.977 8.25 197.141 8.16797 197.328 8.12109V7.73438C197.75 7.54688 198.055 7.33594 198.242 7.10156C198.453 6.84375 198.699 6.53906 198.98 6.1875C199.191 6.16406 199.355 6.15234 199.473 6.15234C199.613 6.15234 199.812 6.12891 200.07 6.08203C200.258 5.75391 200.422 5.50781 200.562 5.34375C200.727 5.17969 200.961 5.00391 201.266 4.81641C201.547 4.95703 201.852 5.05078 202.18 5.09766C202.531 5.14453 202.836 5.29688 203.094 5.55469C203.117 5.78906 203.188 5.97656 203.305 6.11719C203.422 6.23438 203.551 6.35156 203.691 6.46875C203.832 6.5625 203.961 6.66797 204.078 6.78516C204.219 6.90234 204.312 7.06641 204.359 7.27734C204.453 7.30078 204.512 7.28906 204.535 7.24219C204.582 7.19531 204.652 7.18359 204.746 7.20703C204.816 7.53516 204.898 7.75781 204.992 7.875C205.086 7.96875 205.18 8.16797 205.273 8.47266C205.156 8.70703 205.062 8.95312 204.992 9.21094C204.945 9.44531 204.805 9.62109 204.57 9.73828C204.547 9.90234 204.594 9.99609 204.711 10.0195C204.828 10.0195 204.898 10.0781 204.922 10.1953C204.945 10.4062 204.91 10.5586 204.816 10.6523C205.379 11.5664 205.883 12.5391 206.328 13.5703C206.773 14.5781 207.277 15.5391 207.84 16.4531ZM203.445 19.793C203.539 19.5352 203.656 19.3242 203.797 19.1602C203.961 18.9961 204.055 18.75 204.078 18.4219C203.961 18.2344 203.891 18.0938 203.867 18C203.844 17.8828 203.832 17.707 203.832 17.4727C203.316 16.7461 202.871 15.9727 202.496 15.1523C202.121 14.3086 201.699 13.5234 201.23 12.7969C201.184 12.8906 201.102 12.9844 200.984 13.0781C200.867 13.1719 200.738 13.1484 200.598 13.0078C200.551 13.1953 200.469 13.3359 200.352 13.4297C200.234 13.5 200.105 13.5352 199.965 13.5352C199.824 13.5117 199.672 13.4766 199.508 13.4297C199.367 13.3594 199.238 13.2773 199.121 13.1836C198.441 13.7227 197.762 14.25 197.082 14.7656C196.402 15.2812 195.793 15.8789 195.254 16.5586C195.16 16.6055 195.102 16.6289 195.078 16.6289C195.055 16.6055 194.984 16.6172 194.867 16.6641C194.68 17.1094 194.445 17.5195 194.164 17.8945C193.906 18.2461 193.648 18.6094 193.391 18.9844C193.133 19.3594 192.91 19.7578 192.723 20.1797C192.535 20.6016 192.43 21.0938 192.406 21.6562C192.805 21.9844 193.273 22.1836 193.812 22.2539C194.352 22.3242 194.902 22.3359 195.465 22.2891C196.051 22.2422 196.613 22.1719 197.152 22.0781C197.715 21.9609 198.23 21.9023 198.699 21.9023C199.684 21.668 200.527 21.3633 201.23 20.9883C201.934 20.5898 202.672 20.1914 203.445 19.793ZM229.602 7.20703C229.625 7.37109 229.625 7.5 229.602 7.59375C229.602 7.66406 229.59 7.73438 229.566 7.80469C229.566 7.875 229.566 7.95703 229.566 8.05078C229.566 8.12109 229.59 8.23828 229.637 8.40234C229.145 9.19922 228.57 9.75 227.914 10.0547C227.281 10.3359 226.59 10.5469 225.84 10.6875C225.09 10.8047 224.316 10.9336 223.52 11.0742C222.746 11.2148 221.973 11.5195 221.199 11.9883C220.895 11.8711 220.613 11.8711 220.355 11.9883C220.121 12.1055 219.77 12.1406 219.301 12.0938C219.16 12.2344 218.984 12.3398 218.773 12.4102C218.562 12.457 218.352 12.5156 218.141 12.5859C218.234 12.7969 218.27 13.0195 218.246 13.2539C218.246 13.4648 218.281 13.6406 218.352 13.7812C219.172 13.8516 220.074 13.8398 221.059 13.7461C222.066 13.6523 223.051 13.5938 224.012 13.5703C224.035 13.6875 224.023 13.7695 223.977 13.8164C223.93 13.8398 223.918 13.8984 223.941 13.9922C224.105 14.1094 224.27 14.2617 224.434 14.4492C224.598 14.6133 224.762 14.7773 224.926 14.9414C225.09 15.1055 225.254 15.2461 225.418 15.3633C225.605 15.457 225.816 15.4922 226.051 15.4688C226.145 15.6562 226.203 15.8672 226.227 16.1016C226.273 16.3125 226.25 16.5352 226.156 16.7695C225.781 17.0273 225.406 17.2969 225.031 17.5781C224.656 17.8359 224.258 18.0703 223.836 18.2812C223.438 18.4922 223.004 18.668 222.535 18.8086C222.09 18.9258 221.586 18.9727 221.023 18.9492C220.906 18.9492 220.812 18.9492 220.742 18.9492C220.695 18.9492 220.625 18.9141 220.531 18.8438C220.344 18.9609 220.074 18.9961 219.723 18.9492C219.395 18.9023 219.137 18.9375 218.949 19.0547C218.691 18.9375 218.375 18.8906 218 18.9141C217.648 18.9141 217.332 18.8672 217.051 18.7734C216.676 19.2656 216.336 19.793 216.031 20.3555C215.727 20.918 215.457 21.5156 215.223 22.1484C216.02 22.2656 216.676 22.3125 217.191 22.2891C217.73 22.2656 218.234 22.2305 218.703 22.1836C219.172 22.1133 219.652 22.0547 220.145 22.0078C220.637 21.9375 221.258 21.9141 222.008 21.9375C222.477 21.6797 223.027 21.5156 223.66 21.4453C224.316 21.3516 224.914 21.2109 225.453 21.0234C225.641 21.0938 225.805 21.2227 225.945 21.4102C226.086 21.5742 226.215 21.7383 226.332 21.9023C226.473 22.043 226.613 22.1719 226.754 22.2891C226.895 22.4062 227.07 22.4531 227.281 22.4297C227.375 22.5234 227.434 22.6406 227.457 22.7812C227.504 22.8984 227.539 23.0156 227.562 23.1328C227.586 23.25 227.621 23.3555 227.668 23.4492C227.738 23.5195 227.844 23.543 227.984 23.5195C227.633 24.293 227.223 24.8906 226.754 25.3125C226.309 25.7109 225.793 26.0156 225.207 26.2266C224.621 26.4375 223.965 26.6016 223.238 26.7188C222.535 26.8359 221.75 26.9766 220.883 27.1406C220.672 27.1875 220.496 27.1758 220.355 27.1055C220.215 27.0586 220.051 27.0352 219.863 27.0352C219.324 27.1523 218.68 27.2578 217.93 27.3516C217.18 27.4453 216.418 27.4805 215.645 27.457C214.871 27.4336 214.133 27.3281 213.43 27.1406C212.727 26.9766 212.152 26.6719 211.707 26.2266C211.52 26.0625 211.391 25.875 211.32 25.6641C211.273 25.4297 211.121 25.2539 210.863 25.1367C210.84 24.832 210.793 24.4922 210.723 24.1172C210.652 23.7422 210.582 23.3555 210.512 22.957C210.441 22.5352 210.383 22.125 210.336 21.7266C210.312 21.3281 210.336 20.9648 210.406 20.6367C210.477 20.2852 210.617 19.9688 210.828 19.6875C211.062 19.4062 211.145 19.1016 211.074 18.7734C211.191 18.75 211.262 18.6914 211.285 18.5977C211.309 18.4805 211.402 18.4336 211.566 18.457C211.707 18.0352 211.859 17.6367 212.023 17.2617C212.188 16.8867 212.352 16.5234 212.516 16.1719C212.703 15.8203 212.879 15.4688 213.043 15.1172C213.23 14.7422 213.406 14.332 213.57 13.8867C213.242 13.582 212.996 13.2539 212.832 12.9023C212.691 12.5273 212.586 12.1641 212.516 11.8125C212.445 11.4375 212.387 11.0625 212.34 10.6875C212.293 10.2891 212.211 9.89062 212.094 9.49219C212.328 9.14062 212.609 8.85938 212.938 8.64844C213.289 8.41406 213.664 8.22656 214.062 8.08594C214.461 7.94531 214.895 7.82812 215.363 7.73438C215.832 7.64062 216.324 7.53516 216.84 7.41797C217.777 7.11328 218.609 6.87891 219.336 6.71484C220.086 6.55078 220.812 6.42188 221.516 6.32812C222.242 6.21094 222.992 6.10547 223.766 6.01172C224.539 5.91797 225.418 5.77734 226.402 5.58984C226.613 5.80078 226.812 5.90625 227 5.90625C227.094 5.69531 227.199 5.63672 227.316 5.73047C227.457 5.80078 227.516 5.73047 227.492 5.51953C227.727 5.91797 228.02 6.25781 228.371 6.53906C228.746 6.79688 229.156 7.01953 229.602 7.20703ZM229.32 11.1797C229.484 10.6875 229.742 10.2656 230.094 9.91406C230.469 9.5625 230.867 9.26953 231.289 9.03516C231.734 8.77734 232.191 8.56641 232.66 8.40234C233.129 8.23828 233.574 8.09766 233.996 7.98047C234.934 7.58203 235.93 7.20703 236.984 6.85547C238.062 6.48047 239.152 6.15234 240.254 5.87109C241.379 5.58984 242.527 5.41406 243.699 5.34375C244.871 5.25 246.102 5.39062 247.391 5.76562C247.461 6 247.566 6.22266 247.707 6.43359C247.848 6.64453 247.988 6.85547 248.129 7.06641C248.293 7.27734 248.434 7.48828 248.551 7.69922C248.668 7.88672 248.738 8.08594 248.762 8.29688C248.996 8.50781 249.184 8.74219 249.324 9C249.465 9.23438 249.488 9.55078 249.395 9.94922C249.16 10.1367 248.926 10.3125 248.691 10.4766C248.48 10.6172 248.246 10.7461 247.988 10.8633C247.121 10.6523 246.242 10.582 245.352 10.6523C244.461 10.7227 243.664 10.7812 242.961 10.8281C242.75 10.6172 242.492 10.5117 242.188 10.5117C241.906 10.5117 241.602 10.5586 241.273 10.6523C240.969 10.7461 240.652 10.8398 240.324 10.9336C240.02 11.0273 239.727 11.0508 239.445 11.0039C239.211 11.1914 238.918 11.3203 238.566 11.3906C238.238 11.4375 237.875 11.4844 237.477 11.5312C237.453 11.6484 237.477 11.7305 237.547 11.7773C237.617 11.8008 237.629 11.8711 237.582 11.9883C237.723 12.1523 237.898 12.2695 238.109 12.3398C238.344 12.4102 238.578 12.4805 238.812 12.5508C239.07 12.6211 239.293 12.7148 239.48 12.832C239.668 12.9258 239.797 13.0898 239.867 13.3242C240.219 13.3242 240.523 13.4062 240.781 13.5703C241.039 13.7344 241.25 13.9336 241.414 14.168C241.578 14.4023 241.695 14.6602 241.766 14.9414C241.859 15.1992 241.906 15.4336 241.906 15.6445C241.977 15.832 242.059 15.9141 242.152 15.8906C242.246 15.8672 242.352 15.9141 242.469 16.0312C242.539 16.3359 242.715 16.6523 242.996 16.9805C243.277 17.2852 243.5 17.625 243.664 18C243.711 18.5859 243.746 19.1133 243.77 19.582C243.793 20.0273 243.711 20.4844 243.523 20.9531C243.172 21.8203 242.68 22.5938 242.047 23.2734C241.438 23.9531 240.734 24.5625 239.938 25.1016C239.164 25.6172 238.332 26.0625 237.441 26.4375C236.551 26.8125 235.684 27.1289 234.84 27.3867C234.746 27.3633 234.652 27.3633 234.559 27.3867C234.465 27.4102 234.441 27.3516 234.488 27.2109C234.301 27.375 234.09 27.4805 233.855 27.5273C233.645 27.5742 233.41 27.5859 233.152 27.5625C232.895 27.5625 232.625 27.5508 232.344 27.5273C232.086 27.5039 231.84 27.5156 231.605 27.5625C231.441 27.3984 231.289 27.2344 231.148 27.0703C231.031 26.9297 230.938 26.7422 230.867 26.5078C230.75 26.5078 230.691 26.4492 230.691 26.332C230.715 26.2148 230.68 26.1562 230.586 26.1562C230.727 25.9219 230.785 25.793 230.762 25.7695C230.762 25.7227 230.727 25.6875 230.656 25.6641C230.609 25.6406 230.562 25.6172 230.516 25.5938C230.469 25.5469 230.457 25.4883 230.48 25.418C230.574 25.2305 230.609 25.0195 230.586 24.7852C230.562 24.5273 230.539 24.2695 230.516 24.0117C230.492 23.7539 230.504 23.5078 230.551 23.2734C230.621 23.0391 230.797 22.8516 231.078 22.7109C231.875 22.8047 232.625 22.7812 233.328 22.6406C234.055 22.4766 234.734 22.2539 235.367 21.9727C236 21.6914 236.598 21.3867 237.16 21.0586C237.746 20.7305 238.32 20.4375 238.883 20.1797C238.953 19.9688 239.047 19.793 239.164 19.6523C239.305 19.5117 239.445 19.3828 239.586 19.2656C239.727 19.1484 239.855 19.0195 239.973 18.8789C240.09 18.7383 240.172 18.5625 240.219 18.3516C240.242 18.1875 240.195 18.0938 240.078 18.0703C239.984 18.0234 239.938 17.9297 239.938 17.7891L239.551 17.6836C239.105 17.4258 238.602 17.2148 238.039 17.0508C237.477 16.8633 236.996 16.6641 236.598 16.4531C236.34 16.5938 236.094 16.6289 235.859 16.5586C235.648 16.4883 235.367 16.418 235.016 16.3477C234.219 16.3008 233.445 16.2188 232.695 16.1016C231.969 15.9844 231.266 15.7734 230.586 15.4688C230.539 15.3516 230.48 15.2461 230.41 15.1523C230.34 15.0586 230.211 15.0352 230.023 15.082C229.883 14.8945 229.742 14.7188 229.602 14.5547C229.461 14.3672 229.332 14.168 229.215 13.957C229.262 13.6758 229.297 13.4414 229.32 13.2539C229.344 13.043 229.273 12.8438 229.109 12.6562C229.203 12.3516 229.273 12.1055 229.32 11.918C229.367 11.7305 229.367 11.4844 229.32 11.1797Z" fill="#C7EED4"/>
</svg>
