<svg width="38" height="38" viewBox="0 0 38 38" fill="none" xmlns="http://www.w3.org/2000/svg">
<g clip-path="url(#clip0_2_13)">
<path d="M3.65739 27.2206L12.3657 35.929C11.1481 36.4248 9.81122 36.5505 8.52252 36.2902C7.23382 36.0298 6.05056 35.3951 5.1209 34.4654C4.19125 33.5358 3.55651 32.3525 3.29618 31.0638C3.03586 29.7751 3.1615 28.4383 3.65739 27.2206ZM11.601 3.13496C12.0125 3.05097 12.3738 2.80695 12.6054 2.45657C12.837 2.10619 12.92 1.67815 12.836 1.26662C12.752 0.855096 12.508 0.493786 12.1576 0.262179C11.8072 0.0305714 11.3792 -0.0523618 10.9676 0.0316234C6.72168 0.775467 2.91957 3.11144 0.337135 6.56287C0.102768 6.90104 0.00924023 7.31716 0.0763638 7.72309C0.143487 8.12902 0.365989 8.49288 0.696742 8.7376C1.02749 8.98232 1.44052 9.08868 1.84833 9.03415C2.25614 8.97962 2.62672 8.76848 2.88155 8.44546C4.99396 5.61656 8.11817 3.71378 11.601 3.13496ZM36.7332 25.3697C36.3232 25.2797 35.8942 25.3563 35.5405 25.5825C35.1869 25.8088 34.9376 26.1662 34.8475 26.5762C34.2459 29.9927 32.3686 33.0529 29.5956 35.1373C29.2563 35.3851 29.0293 35.7574 28.9645 36.1726C28.8998 36.5877 29.0026 37.0115 29.2504 37.3508C29.4981 37.6901 29.8705 37.9171 30.2857 37.9818C30.7008 38.0465 31.1246 37.9437 31.4639 37.696C34.8525 35.149 37.1631 31.4243 37.9397 27.257C37.9845 27.0539 37.9888 26.8439 37.9524 26.6391C37.916 26.4343 37.8396 26.2386 37.7276 26.0634C37.6155 25.8881 37.47 25.7366 37.2994 25.6176C37.1288 25.4986 36.9364 25.4143 36.7332 25.3697ZM31.931 8.30771L34.3693 5.86937C34.5205 5.72332 34.6411 5.5486 34.7241 5.35543C34.8071 5.16226 34.8508 4.95449 34.8526 4.74426C34.8544 4.53403 34.8144 4.32553 34.7348 4.13095C34.6552 3.93636 34.5376 3.75958 34.3889 3.61092C34.2403 3.46225 34.0635 3.34468 33.8689 3.26507C33.6743 3.18546 33.4658 3.1454 33.2556 3.14723C33.0454 3.14905 32.8376 3.19273 32.6444 3.27571C32.4512 3.35869 32.2765 3.47932 32.1305 3.63054L29.689 6.07204C27.503 4.33498 24.8286 3.3248 22.0401 3.18285C19.2516 3.0409 16.4885 3.77428 14.1375 5.28037L5.42914 10.6637C4.40797 11.2948 3.54281 12.1487 2.89845 13.1616C2.25408 14.1744 1.84722 15.32 1.70832 16.5123C1.56942 17.7047 1.70208 18.9131 2.09638 20.0469C2.49067 21.1808 3.13637 22.2107 3.98514 23.0596L15.0036 34.078C15.854 34.9288 16.8863 35.5756 18.0228 35.97C19.1593 36.3643 20.3703 36.4958 21.565 36.3547C22.7596 36.2136 23.9067 35.8035 24.92 35.1552C25.9333 34.5069 26.7865 33.6374 27.4153 32.6119L33.1153 23.3082C34.4255 20.9716 35.0123 18.2986 34.8015 15.6281C34.5906 12.9575 33.5916 10.4097 31.931 8.30771Z" fill="#6CD0DA"/>
</g>
<defs>
<clipPath id="clip0_2_13">
<rect width="38" height="38" fill="white"/>
</clipPath>
</defs>
</svg>
