<svg width="69" height="69" viewBox="0 0 69 69" fill="none" xmlns="http://www.w3.org/2000/svg">
<g clip-path="url(#clip0_8_85)">
<path d="M60.4266 38.6022C58.2092 38.6026 56.0792 39.4668 54.4882 41.0113L51.1046 39.3195C53.8665 30.2613 48.7624 20.6793 39.7043 17.9175C36.3909 16.9073 32.8491 16.9242 29.5456 17.9661L27.5623 14.3853C30.7457 10.8994 30.5006 5.49288 27.0147 2.30958C23.5289 -0.873854 18.1225 -0.628716 14.9391 2.85713C11.7556 6.34298 12.0008 11.7494 15.4866 14.9328C17.068 16.377 19.1338 17.1749 21.2752 17.1687C21.6862 17.157 22.0959 17.1159 22.5012 17.0458L24.4673 20.5979C17.0203 26.1243 15.349 36.586 20.7035 44.1574L12.376 52.1591C7.95807 50.1806 2.77283 52.158 0.794334 56.5759C-1.18416 60.9938 0.793255 66.1791 5.21114 68.1575C9.62903 70.136 14.8143 68.1586 16.7928 63.7407C17.8951 61.2792 17.8028 58.4473 16.5426 56.0627L24.7045 48.2182C32.331 53.7419 42.9909 52.0421 48.5212 44.4202L51.9506 46.1348C51.8964 46.4791 51.864 46.8266 51.8534 47.1751C51.8534 51.9099 55.6918 55.7485 60.4268 55.7485C65.1618 55.7485 69 51.9105 69 47.1756C69 42.4408 65.1616 38.6022 60.4266 38.6022Z" fill="#6CD0DA"/>
</g>
<defs>
<clipPath id="clip0_8_85">
<rect width="69" height="69" fill="white"/>
</clipPath>
</defs>
</svg>
