<svg width="69" height="69" viewBox="0 0 69 69" fill="none" xmlns="http://www.w3.org/2000/svg">
<g clip-path="url(#clip0_8_104)">
<path d="M54.625 2.87585H14.375C10.5639 2.88042 6.9102 4.39639 4.21535 7.09124C1.52051 9.78608 0.00453457 13.4398 -3.05176e-05 17.2509L-3.05176e-05 40.2509C0.00453457 44.0619 1.52051 47.7156 4.21535 50.4105C6.9102 53.1053 10.5639 54.6213 14.375 54.6259H31.625V60.3759H20.125C19.3625 60.3759 18.6312 60.6787 18.092 61.2179C17.5529 61.7571 17.25 62.4884 17.25 63.2509C17.25 64.0133 17.5529 64.7446 18.092 65.2838C18.6312 65.823 19.3625 66.1259 20.125 66.1259H48.875C49.6375 66.1259 50.3687 65.823 50.9079 65.2838C51.4471 64.7446 51.75 64.0133 51.75 63.2509C51.75 62.4884 51.4471 61.7571 50.9079 61.2179C50.3687 60.6787 49.6375 60.3759 48.875 60.3759H37.375V54.6259H54.625C58.4361 54.6213 62.0897 53.1053 64.7846 50.4105C67.4794 47.7156 68.9954 44.0619 69 40.2509V17.2509C68.9954 13.4398 67.4794 9.78608 64.7846 7.09124C62.0897 4.39639 58.4361 2.88042 54.625 2.87585ZM54.625 31.6259H46.1006L41.2131 38.9715C40.9497 39.3663 40.5926 39.6898 40.1737 39.9131C39.7548 40.1363 39.2871 40.2523 38.8125 40.2509C38.7521 40.2509 38.6917 40.2509 38.6342 40.2509C38.1312 40.2199 37.6452 40.0572 37.2249 39.7792C36.8045 39.5011 36.4647 39.1175 36.2393 38.6667L29.831 25.8414L26.8295 30.3465C26.5668 30.7401 26.2111 31.0628 25.7938 31.286C25.3766 31.5092 24.9107 31.6259 24.4375 31.6259H14.375C13.6125 31.6259 12.8812 31.323 12.342 30.7838C11.8029 30.2446 11.5 29.5133 11.5 28.7509C11.5 27.9884 11.8029 27.2571 12.342 26.7179C12.8812 26.1788 13.6125 25.8759 14.375 25.8759H22.8993L27.7868 18.5302C28.0635 18.1063 28.4485 17.7642 28.902 17.5392C29.3555 17.3143 29.8608 17.2147 30.3657 17.2509C30.8687 17.2818 31.3548 17.4445 31.7751 17.7225C32.1954 18.0006 32.5353 18.3842 32.7606 18.835L39.169 31.6546L42.1705 27.1495C42.4338 26.7569 42.7898 26.4353 43.207 26.2132C43.6242 25.991 44.0898 25.8752 44.5625 25.8759H54.625C55.3875 25.8759 56.1187 26.1788 56.6579 26.7179C57.1971 27.2571 57.5 27.9884 57.5 28.7509C57.5 29.5133 57.1971 30.2446 56.6579 30.7838C56.1187 31.323 55.3875 31.6259 54.625 31.6259Z" fill="#6CD0DA"/>
</g>
<defs>
<clipPath id="clip0_8_104">
<rect width="69" height="69" fill="white"/>
</clipPath>
</defs>
</svg>
